# MagicaVoxel @ Ephtracy

# group
o 

# material
mtllib Tile.mtl
usemtl palette

# normals
vn -1 0 0
vn 1 0 0
vn 0 0 1
vn 0 0 -1
vn 0 -1 0
vn 0 1 0

# texcoords
vt 0.306641 0.5
vt 0.724609 0.5
vt 0.822266 0.5
vt 0.841797 0.5
vt 0.978516 0.5

# verts
v -0.5 0 0.5
v -0.5 0 0.4
v -0.5 0 -0.5
v -0.5 0.1 0.5
v -0.5 0.1 0.4
v -0.5 0.1 -0.5
v -0.5 0.9 0.5
v -0.5 0.9 0.4
v -0.5 0.9 -0.5
v -0.5 1 0.5
v -0.5 1 -0.5
v 0.5 0 0.5
v 0.5 0 0.4
v 0.5 0 -0.5
v 0.5 0.1 0.5
v 0.5 0.1 0.4
v 0.5 0.9 0.5
v 0.5 0.9 -0.5
v 0.5 1 0.5
v 0.5 1 -0.5
v -0.5 0 0.5
v -0.5 0.1 0.5
v -0.5 0.9 0.5
v -0.5 1 0.5
v -0.4 0.1 0.5
v -0.4 0.9 0.5
v 0.5 0 0.5
v 0.5 0.1 0.5
v 0.5 0.9 0.5
v 0.5 1 0.5
v -0.5 0 -0.5
v -0.5 0.1 -0.5
v -0.5 0.9 -0.5
v -0.5 1 -0.5
v -0.4 0 -0.5
v -0.4 0.1 -0.5
v 0.5 0 -0.5
v 0.5 0.9 -0.5
v 0.5 1 -0.5
v -0.5 0 0.5
v 0.5 0 0.5
v -0.5 0 0.4
v -0.4 0 0.4
v 0.5 0 0.4
v -0.5 0 -0.5
v -0.4 0 -0.5
v 0.5 0 -0.5
v -0.5 1 0.5
v 0.5 1 0.5
v -0.5 1 -0.5
v 0.5 1 -0.5

# faces
f 4/4/1 2/4/1 1/4/1
f 5/2/1 3/2/1 2/2/1
f 5/4/1 2/4/1 4/4/1
f 6/2/1 3/2/1 5/2/1
f 7/3/1 5/3/1 4/3/1
f 8/1/1 6/1/1 5/1/1
f 8/3/1 5/3/1 7/3/1
f 9/1/1 6/1/1 8/1/1
f 10/5/1 8/5/1 7/5/1
f 10/5/1 9/5/1 8/5/1
f 11/5/1 9/5/1 10/5/1
f 12/4/2 13/4/2 15/4/2
f 13/1/2 14/1/2 16/1/2
f 15/4/2 13/4/2 16/4/2
f 15/1/2 16/1/2 17/1/2
f 16/1/2 14/1/2 18/1/2
f 17/1/2 16/1/2 18/1/2
f 17/5/2 18/5/2 19/5/2
f 19/5/2 18/5/2 20/5/2
f 25/4/3 22/4/3 21/4/3
f 25/3/3 23/3/3 22/3/3
f 26/5/3 24/5/3 23/5/3
f 26/3/3 23/3/3 25/3/3
f 27/4/3 25/4/3 21/4/3
f 28/1/3 26/1/3 25/1/3
f 28/4/3 25/4/3 27/4/3
f 29/5/3 24/5/3 26/5/3
f 29/1/3 26/1/3 28/1/3
f 30/5/3 24/5/3 29/5/3
f 31/2/4 32/2/4 35/2/4
f 32/1/4 33/1/4 36/1/4
f 35/2/4 32/2/4 36/2/4
f 35/1/4 36/1/4 37/1/4
f 33/5/4 34/5/4 38/5/4
f 37/1/4 36/1/4 38/1/4
f 36/1/4 33/1/4 38/1/4
f 38/5/4 34/5/4 39/5/4
f 42/4/5 41/4/5 40/4/5
f 43/4/5 41/4/5 42/4/5
f 44/4/5 41/4/5 43/4/5
f 45/2/5 43/2/5 42/2/5
f 46/1/5 44/1/5 43/1/5
f 46/2/5 43/2/5 45/2/5
f 47/1/5 44/1/5 46/1/5
f 48/5/6 49/5/6 50/5/6
f 50/5/6 49/5/6 51/5/6
