# MagicaVoxel @ Ephtracy

# group
o 

# material
mtllib Missile.mtl
usemtl palette

# normals
vn -1 0 0
vn 1 0 0
vn 0 0 1
vn 0 0 -1
vn 0 -1 0
vn 0 1 0

# texcoords
vt 0.841797 0.5
vt 0.857422 0.5

# verts
v -0.3 0 0.1
v -0.3 0 -0.1
v -0.3 0.1 -0.1
v -0.3 0.1 -0.2
v -0.3 0.3 -0.1
v -0.3 0.3 -0.2
v -0.3 0.6 0.1
v -0.3 0.6 -0.1
v -0.2 0.2 0.2
v -0.2 0.2 0.1
v -0.2 0.3 0.4
v -0.2 0.3 0.2
v -0.2 0.4 -0.1
v -0.2 0.4 -0.2
v -0.2 0.6 0.4
v -0.2 0.6 0.1
v -0.2 0.6 -0.1
v -0.2 0.6 -0.2
v -0.2 0.7 0.1
v -0.2 0.7 -0.1
v -0.1 0.1 -0.1
v -0.1 0.1 -0.2
v -0.1 0.3 -0.1
v -0.1 0.3 -0.2
v -0.1 0.4 0.5
v -0.1 0.4 0.4
v -0.1 0.5 -0.2
v -0.1 0.5 -0.4
v -0.1 0.6 0.5
v -0.1 0.6 0.4
v -0.1 0.6 -0.2
v -0.1 0.6 -0.4
v -0.1 0.7 0.1
v -0.1 0.7 -0.1
v -0.1 0.8 0.1
v -0.1 0.8 -0.1
v 0.1 0.1 -0.1
v 0.1 0.1 -0.2
v 0.1 0.3 -0.1
v 0.1 0.3 -0.2
v 0.1 0.5 -0.1
v 0.1 0.5 -0.3
v 0.1 0.6 -0.2
v 0.1 0.6 -0.3
v 0.1 0.8 -0.1
v 0.1 0.8 -0.2
v -0.2 0.1 -0.1
v -0.2 0.1 -0.2
v -0.2 0.3 -0.1
v -0.2 0.3 -0.2
v 0 0.1 -0.1
v 0 0.1 -0.2
v 0 0.3 -0.1
v 0 0.3 -0.2
v 0 0.4 -0.1
v 0 0.4 -0.2
v 0 0.5 -0.2
v 0 0.5 -0.4
v 0 0.6 -0.1
v 0 0.6 -0.4
v 0.1 0.4 0.5
v 0.1 0.4 0.4
v 0.1 0.6 0.5
v 0.1 0.6 0.4
v 0.2 0.1 -0.1
v 0.2 0.1 -0.2
v 0.2 0.3 0.4
v 0.2 0.3 0.2
v 0.2 0.3 -0.1
v 0.2 0.3 -0.2
v 0.2 0.5 -0.1
v 0.2 0.5 -0.3
v 0.2 0.6 0.4
v 0.2 0.6 0.2
v 0.2 0.6 -0.2
v 0.2 0.6 -0.3
v 0.2 0.8 -0.1
v 0.2 0.8 -0.2
v 0.3 0.2 0.2
v 0.3 0.2 0.1
v 0.3 0.2 -0.1
v 0.3 0.6 0.2
v 0.3 0.6 0.1
v 0.3 0.8 0.1
v 0.3 0.8 -0.1
v 0.4 0 0.1
v 0.4 0 -0.1
v 0.4 0.2 0.1
v 0.4 0.2 -0.1
v -0.1 0.4 0.5
v -0.1 0.6 0.5
v 0.1 0.4 0.5
v 0.1 0.6 0.5
v -0.2 0.3 0.4
v -0.2 0.6 0.4
v -0.1 0.4 0.4
v -0.1 0.6 0.4
v 0.1 0.4 0.4
v 0.1 0.6 0.4
v 0.2 0.3 0.4
v 0.2 0.6 0.4
v -0.2 0.2 0.2
v -0.2 0.3 0.2
v 0.2 0.3 0.2
v 0.2 0.6 0.2
v 0.3 0.2 0.2
v 0.3 0.6 0.2
v -0.3 0 0.1
v -0.3 0.6 0.1
v -0.2 0.2 0.1
v -0.2 0.6 0.1
v -0.2 0.7 0.1
v -0.1 0.7 0.1
v -0.1 0.8 0.1
v 0.3 0.2 0.1
v 0.3 0.6 0.1
v 0.3 0.8 0.1
v 0.4 0 0.1
v 0.4 0.2 0.1
v -0.3 0 -0.1
v -0.3 0.1 -0.1
v -0.3 0.3 -0.1
v -0.3 0.6 -0.1
v -0.2 0.1 -0.1
v -0.2 0.3 -0.1
v -0.2 0.4 -0.1
v -0.2 0.6 -0.1
v -0.2 0.7 -0.1
v -0.1 0.1 -0.1
v -0.1 0.3 -0.1
v -0.1 0.7 -0.1
v -0.1 0.8 -0.1
v 0 0.1 -0.1
v 0 0.3 -0.1
v 0 0.4 -0.1
v 0 0.6 -0.1
v 0.1 0.1 -0.1
v 0.1 0.3 -0.1
v 0.1 0.5 -0.1
v 0.1 0.8 -0.1
v 0.2 0.1 -0.1
v 0.2 0.3 -0.1
v 0.2 0.5 -0.1
v 0.2 0.8 -0.1
v 0.3 0.2 -0.1
v 0.3 0.8 -0.1
v 0.4 0 -0.1
v 0.4 0.2 -0.1
v -0.3 0.1 -0.2
v -0.3 0.3 -0.2
v -0.2 0.1 -0.2
v -0.2 0.3 -0.2
v -0.2 0.4 -0.2
v -0.2 0.6 -0.2
v -0.1 0.1 -0.2
v -0.1 0.3 -0.2
v -0.1 0.5 -0.2
v -0.1 0.6 -0.2
v 0 0.1 -0.2
v 0 0.3 -0.2
v 0 0.4 -0.2
v 0 0.5 -0.2
v 0.1 0.1 -0.2
v 0.1 0.3 -0.2
v 0.1 0.6 -0.2
v 0.1 0.8 -0.2
v 0.2 0.1 -0.2
v 0.2 0.3 -0.2
v 0.2 0.6 -0.2
v 0.2 0.8 -0.2
v 0.1 0.5 -0.3
v 0.1 0.6 -0.3
v 0.2 0.5 -0.3
v 0.2 0.6 -0.3
v -0.1 0.5 -0.4
v -0.1 0.6 -0.4
v 0 0.5 -0.4
v 0 0.6 -0.4
v -0.3 0 0.1
v 0.4 0 0.1
v -0.3 0 -0.1
v 0.4 0 -0.1
v -0.3 0.1 -0.1
v -0.2 0.1 -0.1
v -0.1 0.1 -0.1
v 0 0.1 -0.1
v 0.1 0.1 -0.1
v 0.2 0.1 -0.1
v -0.3 0.1 -0.2
v -0.2 0.1 -0.2
v -0.1 0.1 -0.2
v 0 0.1 -0.2
v 0.1 0.1 -0.2
v 0.2 0.1 -0.2
v -0.2 0.2 0.2
v 0.3 0.2 0.2
v -0.2 0.2 0.1
v 0.3 0.2 0.1
v -0.2 0.3 0.4
v 0.2 0.3 0.4
v -0.2 0.3 0.2
v 0.2 0.3 0.2
v -0.1 0.4 0.5
v 0.1 0.4 0.5
v -0.1 0.4 0.4
v 0.1 0.4 0.4
v -0.2 0.4 -0.1
v 0 0.4 -0.1
v -0.2 0.4 -0.2
v 0 0.4 -0.2
v 0.1 0.5 -0.1
v 0.2 0.5 -0.1
v -0.1 0.5 -0.2
v 0 0.5 -0.2
v 0.1 0.5 -0.3
v 0.2 0.5 -0.3
v -0.1 0.5 -0.4
v 0 0.5 -0.4
v 0.3 0.2 0.1
v 0.4 0.2 0.1
v 0.3 0.2 -0.1
v 0.4 0.2 -0.1
v -0.3 0.3 -0.1
v -0.2 0.3 -0.1
v -0.1 0.3 -0.1
v 0 0.3 -0.1
v 0.1 0.3 -0.1
v 0.2 0.3 -0.1
v -0.3 0.3 -0.2
v -0.2 0.3 -0.2
v -0.1 0.3 -0.2
v 0 0.3 -0.2
v 0.1 0.3 -0.2
v 0.2 0.3 -0.2
v -0.1 0.6 0.5
v 0.1 0.6 0.5
v -0.2 0.6 0.4
v -0.1 0.6 0.4
v 0.1 0.6 0.4
v 0.2 0.6 0.4
v 0.2 0.6 0.2
v 0.3 0.6 0.2
v -0.3 0.6 0.1
v -0.2 0.6 0.1
v 0.3 0.6 0.1
v -0.3 0.6 -0.1
v -0.2 0.6 -0.1
v 0 0.6 -0.1
v -0.2 0.6 -0.2
v -0.1 0.6 -0.2
v 0.1 0.6 -0.2
v 0.2 0.6 -0.2
v 0.1 0.6 -0.3
v 0.2 0.6 -0.3
v -0.1 0.6 -0.4
v 0 0.6 -0.4
v -0.2 0.7 0.1
v -0.1 0.7 0.1
v -0.2 0.7 -0.1
v -0.1 0.7 -0.1
v -0.1 0.8 0.1
v 0.3 0.8 0.1
v -0.1 0.8 -0.1
v 0.1 0.8 -0.1
v 0.2 0.8 -0.1
v 0.3 0.8 -0.1
v 0.1 0.8 -0.2
v 0.2 0.8 -0.2

# faces
f 3/1/1 2/1/1 1/1/1
f 5/1/1 3/1/1 1/1/1
f 5/1/1 4/1/1 3/1/1
f 6/1/1 4/1/1 5/1/1
f 7/1/1 5/1/1 1/1/1
f 8/1/1 5/1/1 7/1/1
f 12/1/1 10/1/1 9/1/1
f 15/1/1 12/1/1 11/1/1
f 16/1/1 10/1/1 12/1/1
f 16/1/1 12/1/1 15/1/1
f 17/1/1 14/1/1 13/1/1
f 18/1/1 14/1/1 17/1/1
f 19/1/1 17/1/1 16/1/1
f 20/1/1 17/1/1 19/1/1
f 23/1/1 22/1/1 21/1/1
f 24/1/1 22/1/1 23/1/1
f 29/2/1 26/2/1 25/2/1
f 30/2/1 26/2/1 29/2/1
f 31/1/1 28/1/1 27/1/1
f 32/1/1 28/1/1 31/1/1
f 35/1/1 34/1/1 33/1/1
f 36/1/1 34/1/1 35/1/1
f 39/1/1 38/1/1 37/1/1
f 40/1/1 38/1/1 39/1/1
f 43/1/1 42/1/1 41/1/1
f 44/1/1 42/1/1 43/1/1
f 45/1/1 43/1/1 41/1/1
f 46/1/1 43/1/1 45/1/1
f 47/1/2 48/1/2 49/1/2
f 49/1/2 48/1/2 50/1/2
f 51/1/2 52/1/2 53/1/2
f 53/1/2 52/1/2 54/1/2
f 55/1/2 56/1/2 57/1/2
f 55/1/2 57/1/2 59/1/2
f 57/1/2 58/1/2 59/1/2
f 59/1/2 58/1/2 60/1/2
f 61/2/2 62/2/2 63/2/2
f 63/2/2 62/2/2 64/2/2
f 65/1/2 66/1/2 69/1/2
f 69/1/2 66/1/2 70/1/2
f 67/1/2 68/1/2 73/1/2
f 73/1/2 68/1/2 74/1/2
f 71/1/2 72/1/2 75/1/2
f 75/1/2 72/1/2 76/1/2
f 71/1/2 75/1/2 77/1/2
f 77/1/2 75/1/2 78/1/2
f 79/1/2 80/1/2 82/1/2
f 80/1/2 81/1/2 82/1/2
f 82/1/2 81/1/2 83/1/2
f 83/1/2 81/1/2 84/1/2
f 84/1/2 81/1/2 85/1/2
f 86/1/2 87/1/2 88/1/2
f 88/1/2 87/1/2 89/1/2
f 92/2/3 91/2/3 90/2/3
f 93/2/3 91/2/3 92/2/3
f 96/1/3 95/1/3 94/1/3
f 97/1/3 95/1/3 96/1/3
f 98/1/3 96/1/3 94/1/3
f 100/1/3 98/1/3 94/1/3
f 100/1/3 99/1/3 98/1/3
f 101/1/3 99/1/3 100/1/3
f 104/1/3 103/1/3 102/1/3
f 106/1/3 104/1/3 102/1/3
f 106/1/3 105/1/3 104/1/3
f 107/1/3 105/1/3 106/1/3
f 110/1/3 109/1/3 108/1/3
f 111/1/3 109/1/3 110/1/3
f 113/1/3 112/1/3 111/1/3
f 115/1/3 110/1/3 108/1/3
f 116/1/3 114/1/3 113/1/3
f 116/1/3 113/1/3 111/1/3
f 117/1/3 114/1/3 116/1/3
f 118/1/3 115/1/3 108/1/3
f 119/1/3 115/1/3 118/1/3
f 120/1/4 121/1/4 124/1/4
f 122/1/4 123/1/4 125/1/4
f 125/1/4 123/1/4 126/1/4
f 126/1/4 123/1/4 127/1/4
f 120/1/4 124/1/4 129/1/4
f 124/1/4 125/1/4 129/1/4
f 125/1/4 126/1/4 129/1/4
f 129/1/4 126/1/4 130/1/4
f 127/1/4 128/1/4 131/1/4
f 120/1/4 129/1/4 133/1/4
f 130/1/4 126/1/4 134/1/4
f 134/1/4 126/1/4 135/1/4
f 131/1/4 132/1/4 136/1/4
f 127/1/4 131/1/4 136/1/4
f 120/1/4 133/1/4 137/1/4
f 135/1/4 136/1/4 137/1/4
f 134/1/4 135/1/4 137/1/4
f 133/1/4 134/1/4 137/1/4
f 137/1/4 136/1/4 138/1/4
f 138/1/4 136/1/4 139/1/4
f 136/1/4 132/1/4 140/1/4
f 139/1/4 136/1/4 140/1/4
f 120/1/4 137/1/4 141/1/4
f 138/1/4 139/1/4 142/1/4
f 142/1/4 139/1/4 143/1/4
f 141/1/4 142/1/4 145/1/4
f 143/1/4 144/1/4 145/1/4
f 142/1/4 143/1/4 145/1/4
f 145/1/4 144/1/4 146/1/4
f 120/1/4 141/1/4 147/1/4
f 141/1/4 145/1/4 147/1/4
f 147/1/4 145/1/4 148/1/4
f 149/1/4 150/1/4 151/1/4
f 151/1/4 150/1/4 152/1/4
f 153/1/4 154/1/4 157/1/4
f 157/1/4 154/1/4 158/1/4
f 155/1/4 156/1/4 159/1/4
f 159/1/4 156/1/4 160/1/4
f 153/1/4 157/1/4 161/1/4
f 161/1/4 157/1/4 162/1/4
f 163/1/4 164/1/4 167/1/4
f 167/1/4 164/1/4 168/1/4
f 165/1/4 166/1/4 169/1/4
f 169/1/4 166/1/4 170/1/4
f 171/1/4 172/1/4 173/1/4
f 173/1/4 172/1/4 174/1/4
f 175/1/4 176/1/4 177/1/4
f 177/1/4 176/1/4 178/1/4
f 181/1/5 180/1/5 179/1/5
f 182/1/5 180/1/5 181/1/5
f 189/1/5 184/1/5 183/1/5
f 190/1/5 184/1/5 189/1/5
f 191/1/5 186/1/5 185/1/5
f 192/1/5 186/1/5 191/1/5
f 193/1/5 188/1/5 187/1/5
f 194/1/5 188/1/5 193/1/5
f 197/1/5 196/1/5 195/1/5
f 198/1/5 196/1/5 197/1/5
f 201/1/5 200/1/5 199/1/5
f 202/1/5 200/1/5 201/1/5
f 205/2/5 204/2/5 203/2/5
f 206/2/5 204/2/5 205/2/5
f 209/1/5 208/1/5 207/1/5
f 210/1/5 208/1/5 209/1/5
f 215/1/5 212/1/5 211/1/5
f 216/1/5 212/1/5 215/1/5
f 217/1/5 214/1/5 213/1/5
f 218/1/5 214/1/5 217/1/5
f 219/1/6 220/1/6 221/1/6
f 221/1/6 220/1/6 222/1/6
f 223/1/6 224/1/6 229/1/6
f 229/1/6 224/1/6 230/1/6
f 225/1/6 226/1/6 231/1/6
f 231/1/6 226/1/6 232/1/6
f 227/1/6 228/1/6 233/1/6
f 233/1/6 228/1/6 234/1/6
f 235/2/6 236/2/6 238/2/6
f 238/2/6 236/2/6 239/2/6
f 237/1/6 238/1/6 241/1/6
f 239/1/6 240/1/6 241/1/6
f 238/1/6 239/1/6 241/1/6
f 237/1/6 241/1/6 244/1/6
f 241/1/6 242/1/6 244/1/6
f 244/1/6 242/1/6 245/1/6
f 243/1/6 244/1/6 246/1/6
f 246/1/6 244/1/6 247/1/6
f 247/1/6 248/1/6 249/1/6
f 249/1/6 248/1/6 250/1/6
f 251/1/6 252/1/6 253/1/6
f 253/1/6 252/1/6 254/1/6
f 250/1/6 248/1/6 255/1/6
f 255/1/6 248/1/6 256/1/6
f 257/1/6 258/1/6 259/1/6
f 259/1/6 258/1/6 260/1/6
f 261/1/6 262/1/6 263/1/6
f 263/1/6 262/1/6 264/1/6
f 264/1/6 262/1/6 265/1/6
f 265/1/6 262/1/6 266/1/6
f 264/1/6 265/1/6 267/1/6
f 267/1/6 265/1/6 268/1/6
