# MagicaVoxel @ Ephtracy

# group
o 

# material
mtllib glider.mtl
usemtl palette

# normals
vn -1 0 0
vn 1 0 0
vn 0 0 1
vn 0 0 -1
vn 0 -1 0
vn 0 1 0

# texcoords
vt 0.306641 0.5
vt 0.537109 0.5
vt 0.994141 0.5

# verts
v -1 1.9 -0.8
v -1 1.9 -1.1
v -1 2 -0.8
v -1 2 -1.1
v -0.9 1.9 -0.6
v -0.9 1.9 -0.8
v -0.9 2 -0.6
v -0.9 2 -0.8
v -0.8 1.9 -0.4
v -0.8 1.9 -0.6
v -0.8 2 -0.4
v -0.8 2 -0.6
v -0.7 1.9 -0.1
v -0.7 1.9 -0.4
v -0.7 2 -0.1
v -0.7 2 -0.4
v -0.6 1.9 0.1
v -0.6 1.9 -0.1
v -0.6 2 0.1
v -0.6 2 -0.1
v -0.5 1.9 0.4
v -0.5 1.9 0.1
v -0.5 2 0.4
v -0.5 2 0.1
v -0.4 1.9 0.6
v -0.4 1.9 0.4
v -0.4 2 0.6
v -0.4 2 0.4
v -0.3 1.9 0.8
v -0.3 1.9 0.6
v -0.3 2 0.8
v -0.3 2 0.6
v -0.2 1.9 1
v -0.2 1.9 0.8
v -0.2 2 1
v -0.2 2 0.8
v 0.3 1.9 1
v 0.3 1.9 0.8
v 0.3 2 1
v 0.3 2 0.8
v 0.4 1.9 0.8
v 0.4 1.9 0.5
v 0.4 2 0.8
v 0.4 2 0.5
v 0.5 1.9 0.5
v 0.5 1.9 0.3
v 0.5 2 0.5
v 0.5 2 0.3
v 0.6 1.9 0.3
v 0.6 1.9 0
v 0.6 2 0.3
v 0.6 2 0
v 0.7 1.9 0
v 0.7 1.9 -0.3
v 0.7 2 0
v 0.7 2 -0.3
v 0.8 1.9 -0.3
v 0.8 1.9 -0.5
v 0.8 2 -0.3
v 0.8 2 -0.5
v 0.9 1.9 -0.5
v 0.9 1.9 -0.8
v 0.9 2 -0.5
v 0.9 2 -0.8
v 1 1.9 -0.8
v 1 1.9 -1.1
v 1 2 -0.8
v 1 2 -1.1
v -0.2 1.9 1
v -0.2 2 1
v 0.3 1.9 1
v 0.3 2 1
v -0.3 1.9 0.8
v -0.3 2 0.8
v -0.2 1.9 0.8
v -0.2 2 0.8
v 0.3 1.9 0.8
v 0.3 2 0.8
v 0.4 1.9 0.8
v 0.4 2 0.8
v -0.4 1.9 0.6
v -0.4 2 0.6
v -0.3 1.9 0.6
v -0.3 2 0.6
v 0.4 1.9 0.5
v 0.4 2 0.5
v 0.5 1.9 0.5
v 0.5 2 0.5
v -0.5 1.9 0.4
v -0.5 2 0.4
v -0.4 1.9 0.4
v -0.4 2 0.4
v 0.5 1.9 0.3
v 0.5 2 0.3
v 0.6 1.9 0.3
v 0.6 2 0.3
v -0.6 1.9 0.1
v -0.6 2 0.1
v -0.5 1.9 0.1
v -0.5 2 0.1
v 0.6 1.9 0
v 0.6 2 0
v 0.7 1.9 0
v 0.7 2 0
v -0.7 1.9 -0.1
v -0.7 2 -0.1
v -0.6 1.9 -0.1
v -0.6 2 -0.1
v 0.7 1.9 -0.3
v 0.7 2 -0.3
v 0.8 1.9 -0.3
v 0.8 2 -0.3
v -0.8 1.9 -0.4
v -0.8 2 -0.4
v -0.7 1.9 -0.4
v -0.7 2 -0.4
v 0.8 1.9 -0.5
v 0.8 2 -0.5
v 0.9 1.9 -0.5
v 0.9 2 -0.5
v -0.9 1.9 -0.6
v -0.9 2 -0.6
v -0.8 1.9 -0.6
v -0.8 2 -0.6
v -1 1.9 -0.8
v -1 2 -0.8
v -0.9 1.9 -0.8
v -0.9 2 -0.8
v 0.9 1.9 -0.8
v 0.9 2 -0.8
v 1 1.9 -0.8
v 1 2 -0.8
v -1 1.9 -1.1
v -1 2 -1.1
v 1 1.9 -1.1
v 1 2 -1.1
v -0.2 1.9 1
v 0.3 1.9 1
v -0.3 1.9 0.8
v -0.2 1.9 0.8
v 0.3 1.9 0.8
v 0.4 1.9 0.8
v -0.1 1.9 0.7
v 0.2 1.9 0.7
v -0.4 1.9 0.6
v -0.3 1.9 0.6
v 0 1.9 0.6
v 0.1 1.9 0.6
v 0.2 1.9 0.6
v 0.3 1.9 0.6
v -0.2 1.9 0.5
v -0.1 1.9 0.5
v 0.1 1.9 0.5
v 0.2 1.9 0.5
v 0.4 1.9 0.5
v 0.5 1.9 0.5
v -0.5 1.9 0.4
v -0.4 1.9 0.4
v -0.1 1.9 0.4
v 0 1.9 0.4
v 0.3 1.9 0.4
v 0.4 1.9 0.4
v -0.3 1.9 0.3
v -0.2 1.9 0.3
v -0.1 1.9 0.3
v 0.2 1.9 0.3
v 0.5 1.9 0.3
v 0.6 1.9 0.3
v -0.2 1.9 0.2
v 0.2 1.9 0.2
v -0.6 1.9 0.1
v -0.5 1.9 0.1
v 0.2 1.9 0.1
v 0.3 1.9 0.1
v 0.4 1.9 0.1
v 0.5 1.9 0.1
v 0.3 1.9 0
v 0.4 1.9 0
v 0.6 1.9 0
v 0.7 1.9 0
v -0.7 1.9 -0.1
v -0.6 1.9 -0.1
v -0.2 1.9 -0.1
v -0.1 1.9 -0.1
v 0.2 1.9 -0.1
v 0.4 1.9 -0.1
v -0.4 1.9 -0.2
v -0.3 1.9 -0.2
v -0.1 1.9 -0.2
v 0.2 1.9 -0.2
v 0.4 1.9 -0.2
v 0.5 1.9 -0.2
v 0.6 1.9 -0.2
v -0.5 1.9 -0.3
v -0.4 1.9 -0.3
v 0.2 1.9 -0.3
v 0.4 1.9 -0.3
v 0.5 1.9 -0.3
v 0.7 1.9 -0.3
v 0.8 1.9 -0.3
v -0.8 1.9 -0.4
v -0.7 1.9 -0.4
v -0.4 1.9 -0.4
v -0.3 1.9 -0.4
v 0.4 1.9 -0.4
v 0.5 1.9 -0.4
v -0.5 1.9 -0.5
v -0.4 1.9 -0.5
v -0.3 1.9 -0.5
v -0.2 1.9 -0.5
v 0.3 1.9 -0.5
v 0.4 1.9 -0.5
v 0.5 1.9 -0.5
v 0.6 1.9 -0.5
v 0.8 1.9 -0.5
v 0.9 1.9 -0.5
v -0.9 1.9 -0.6
v -0.8 1.9 -0.6
v -0.4 1.9 -0.6
v -0.3 1.9 -0.6
v -0.2 1.9 -0.6
v 0.3 1.9 -0.6
v 0.4 1.9 -0.6
v 0.5 1.9 -0.6
v -0.3 1.9 -0.7
v 0.4 1.9 -0.7
v -1 1.9 -0.8
v -0.9 1.9 -0.8
v 0.9 1.9 -0.8
v 1 1.9 -0.8
v -1 1.9 -1.1
v 1 1.9 -1.1
v -0.2 2 1
v 0.3 2 1
v -0.3 2 0.8
v -0.2 2 0.8
v 0.3 2 0.8
v 0.4 2 0.8
v -0.1 2 0.7
v 0.2 2 0.7
v -0.4 2 0.6
v -0.3 2 0.6
v 0 2 0.6
v 0.1 2 0.6
v 0.2 2 0.6
v 0.3 2 0.6
v -0.2 2 0.5
v -0.1 2 0.5
v 0.1 2 0.5
v 0.2 2 0.5
v 0.4 2 0.5
v 0.5 2 0.5
v -0.5 2 0.4
v -0.4 2 0.4
v -0.1 2 0.4
v 0 2 0.4
v 0.3 2 0.4
v 0.4 2 0.4
v -0.3 2 0.3
v -0.2 2 0.3
v -0.1 2 0.3
v 0.2 2 0.3
v 0.5 2 0.3
v 0.6 2 0.3
v -0.2 2 0.2
v 0.2 2 0.2
v -0.6 2 0.1
v -0.5 2 0.1
v 0.2 2 0.1
v 0.3 2 0.1
v 0.4 2 0.1
v 0.5 2 0.1
v 0.3 2 0
v 0.4 2 0
v 0.6 2 0
v 0.7 2 0
v -0.7 2 -0.1
v -0.6 2 -0.1
v -0.2 2 -0.1
v -0.1 2 -0.1
v 0.2 2 -0.1
v 0.4 2 -0.1
v -0.4 2 -0.2
v -0.3 2 -0.2
v -0.1 2 -0.2
v 0.2 2 -0.2
v 0.4 2 -0.2
v 0.5 2 -0.2
v 0.6 2 -0.2
v -0.5 2 -0.3
v -0.4 2 -0.3
v 0.2 2 -0.3
v 0.4 2 -0.3
v 0.5 2 -0.3
v 0.7 2 -0.3
v 0.8 2 -0.3
v -0.8 2 -0.4
v -0.7 2 -0.4
v -0.4 2 -0.4
v -0.3 2 -0.4
v 0.4 2 -0.4
v 0.5 2 -0.4
v -0.5 2 -0.5
v -0.4 2 -0.5
v -0.3 2 -0.5
v -0.2 2 -0.5
v 0.3 2 -0.5
v 0.4 2 -0.5
v 0.5 2 -0.5
v 0.6 2 -0.5
v 0.8 2 -0.5
v 0.9 2 -0.5
v -0.9 2 -0.6
v -0.8 2 -0.6
v -0.4 2 -0.6
v -0.3 2 -0.6
v -0.2 2 -0.6
v 0.3 2 -0.6
v 0.4 2 -0.6
v 0.5 2 -0.6
v -0.3 2 -0.7
v 0.4 2 -0.7
v -1 2 -0.8
v -0.9 2 -0.8
v 0.9 2 -0.8
v 1 2 -0.8
v -1 2 -1.1
v 1 2 -1.1

# faces
f 3/1/1 2/1/1 1/1/1
f 4/1/1 2/1/1 3/1/1
f 7/1/1 6/1/1 5/1/1
f 8/1/1 6/1/1 7/1/1
f 11/1/1 10/1/1 9/1/1
f 12/1/1 10/1/1 11/1/1
f 15/1/1 14/1/1 13/1/1
f 16/1/1 14/1/1 15/1/1
f 19/1/1 18/1/1 17/1/1
f 20/1/1 18/1/1 19/1/1
f 23/1/1 22/1/1 21/1/1
f 24/1/1 22/1/1 23/1/1
f 27/1/1 26/1/1 25/1/1
f 28/1/1 26/1/1 27/1/1
f 31/1/1 30/1/1 29/1/1
f 32/1/1 30/1/1 31/1/1
f 35/1/1 34/1/1 33/1/1
f 36/1/1 34/1/1 35/1/1
f 37/1/2 38/1/2 39/1/2
f 39/1/2 38/1/2 40/1/2
f 41/1/2 42/1/2 43/1/2
f 43/1/2 42/1/2 44/1/2
f 45/1/2 46/1/2 47/1/2
f 47/1/2 46/1/2 48/1/2
f 49/1/2 50/1/2 51/1/2
f 51/1/2 50/1/2 52/1/2
f 53/1/2 54/1/2 55/1/2
f 55/1/2 54/1/2 56/1/2
f 57/1/2 58/1/2 59/1/2
f 59/1/2 58/1/2 60/1/2
f 61/1/2 62/1/2 63/1/2
f 63/1/2 62/1/2 64/1/2
f 65/1/2 66/1/2 67/1/2
f 67/1/2 66/1/2 68/1/2
f 71/1/3 70/1/3 69/1/3
f 72/1/3 70/1/3 71/1/3
f 75/1/3 74/1/3 73/1/3
f 76/1/3 74/1/3 75/1/3
f 79/1/3 78/1/3 77/1/3
f 80/1/3 78/1/3 79/1/3
f 83/1/3 82/1/3 81/1/3
f 84/1/3 82/1/3 83/1/3
f 87/1/3 86/1/3 85/1/3
f 88/1/3 86/1/3 87/1/3
f 91/1/3 90/1/3 89/1/3
f 92/1/3 90/1/3 91/1/3
f 95/1/3 94/1/3 93/1/3
f 96/1/3 94/1/3 95/1/3
f 99/1/3 98/1/3 97/1/3
f 100/1/3 98/1/3 99/1/3
f 103/1/3 102/1/3 101/1/3
f 104/1/3 102/1/3 103/1/3
f 107/1/3 106/1/3 105/1/3
f 108/1/3 106/1/3 107/1/3
f 111/1/3 110/1/3 109/1/3
f 112/1/3 110/1/3 111/1/3
f 115/1/3 114/1/3 113/1/3
f 116/1/3 114/1/3 115/1/3
f 119/1/3 118/1/3 117/1/3
f 120/1/3 118/1/3 119/1/3
f 123/1/3 122/1/3 121/1/3
f 124/1/3 122/1/3 123/1/3
f 127/1/3 126/1/3 125/1/3
f 128/1/3 126/1/3 127/1/3
f 131/1/3 130/1/3 129/1/3
f 132/1/3 130/1/3 131/1/3
f 133/1/4 134/1/4 135/1/4
f 135/1/4 134/1/4 136/1/4
f 140/1/5 138/1/5 137/1/5
f 141/1/5 138/1/5 140/1/5
f 143/1/5 140/1/5 139/1/5
f 143/1/5 142/1/5 141/1/5
f 143/1/5 141/1/5 140/1/5
f 144/1/5 142/1/5 143/1/5
f 146/1/5 143/1/5 139/1/5
f 147/3/5 144/3/5 143/3/5
f 148/3/5 144/3/5 147/3/5
f 149/1/5 142/1/5 144/1/5
f 149/3/5 144/3/5 148/3/5
f 150/1/5 142/1/5 149/1/5
f 151/1/5 146/1/5 145/1/5
f 151/1/5 143/1/5 146/1/5
f 152/3/5 147/3/5 143/3/5
f 152/1/5 143/1/5 151/1/5
f 153/2/5 148/2/5 147/2/5
f 153/3/5 150/3/5 149/3/5
f 153/3/5 149/3/5 148/3/5
f 154/3/5 150/3/5 153/3/5
f 155/1/5 142/1/5 150/1/5
f 158/1/5 151/1/5 145/1/5
f 159/3/5 147/3/5 152/3/5
f 159/3/5 152/3/5 151/3/5
f 160/2/5 153/2/5 147/2/5
f 160/3/5 147/3/5 159/3/5
f 160/2/5 154/2/5 153/2/5
f 161/3/5 150/3/5 154/3/5
f 161/1/5 156/1/5 155/1/5
f 161/1/5 155/1/5 150/1/5
f 162/1/5 156/1/5 161/1/5
f 163/1/5 158/1/5 157/1/5
f 163/1/5 151/1/5 158/1/5
f 164/3/5 159/3/5 151/3/5
f 164/1/5 151/1/5 163/1/5
f 165/2/5 160/2/5 159/2/5
f 165/3/5 159/3/5 164/3/5
f 166/2/5 154/2/5 160/2/5
f 166/2/5 160/2/5 165/2/5
f 166/3/5 162/3/5 161/3/5
f 166/3/5 161/3/5 154/3/5
f 167/1/5 156/1/5 162/1/5
f 169/3/5 165/3/5 164/3/5
f 169/3/5 164/3/5 163/3/5
f 169/3/5 166/3/5 165/3/5
f 170/3/5 162/3/5 166/3/5
f 170/3/5 166/3/5 169/3/5
f 172/1/5 163/1/5 157/1/5
f 173/3/5 162/3/5 170/3/5
f 173/2/5 170/2/5 169/2/5
f 174/3/5 162/3/5 173/3/5
f 175/1/5 168/1/5 167/1/5
f 175/3/5 162/3/5 174/3/5
f 175/1/5 167/1/5 162/1/5
f 176/1/5 168/1/5 175/1/5
f 177/2/5 174/2/5 173/2/5
f 177/3/5 175/3/5 174/3/5
f 177/3/5 176/3/5 175/3/5
f 178/3/5 176/3/5 177/3/5
f 179/1/5 168/1/5 176/1/5
f 182/1/5 172/1/5 171/1/5
f 183/3/5 169/3/5 163/3/5
f 183/2/5 173/2/5 169/2/5
f 183/2/5 177/2/5 173/2/5
f 183/2/5 178/2/5 177/2/5
f 184/2/5 178/2/5 183/2/5
f 185/2/5 178/2/5 184/2/5
f 186/3/5 176/3/5 178/3/5
f 186/2/5 178/2/5 185/2/5
f 187/1/5 182/1/5 181/1/5
f 187/1/5 172/1/5 182/1/5
f 187/1/5 163/1/5 172/1/5
f 188/3/5 184/3/5 183/3/5
f 188/1/5 163/1/5 187/1/5
f 188/3/5 183/3/5 163/3/5
f 189/2/5 185/2/5 184/2/5
f 189/3/5 184/3/5 188/3/5
f 190/3/5 186/3/5 185/3/5
f 190/2/5 185/2/5 189/2/5
f 191/3/5 176/3/5 186/3/5
f 191/3/5 186/3/5 190/3/5
f 192/1/5 180/1/5 179/1/5
f 192/3/5 176/3/5 191/3/5
f 192/1/5 179/1/5 176/1/5
f 193/1/5 180/1/5 192/1/5
f 194/1/5 187/1/5 181/1/5
f 195/3/5 190/3/5 189/3/5
f 195/1/5 187/1/5 194/1/5
f 195/3/5 188/3/5 187/3/5
f 195/3/5 189/3/5 188/3/5
f 196/2/5 191/2/5 190/2/5
f 196/3/5 190/3/5 195/3/5
f 197/3/5 193/3/5 192/3/5
f 197/2/5 191/2/5 196/2/5
f 197/3/5 192/3/5 191/3/5
f 198/3/5 193/3/5 197/3/5
f 199/1/5 180/1/5 193/1/5
f 202/1/5 194/1/5 181/1/5
f 203/2/5 196/2/5 195/2/5
f 203/3/5 195/3/5 194/3/5
f 203/2/5 197/2/5 196/2/5
f 203/2/5 198/2/5 197/2/5
f 204/2/5 198/2/5 203/2/5
f 205/2/5 198/2/5 204/2/5
f 206/3/5 193/3/5 198/3/5
f 206/2/5 198/2/5 205/2/5
f 207/1/5 202/1/5 201/1/5
f 207/1/5 194/1/5 202/1/5
f 207/3/5 203/3/5 194/3/5
f 207/3/5 204/3/5 203/3/5
f 208/3/5 204/3/5 207/3/5
f 209/2/5 205/2/5 204/2/5
f 209/3/5 204/3/5 208/3/5
f 210/2/5 205/2/5 209/2/5
f 211/2/5 205/2/5 210/2/5
f 212/3/5 206/3/5 205/3/5
f 212/2/5 205/2/5 211/2/5
f 213/3/5 193/3/5 206/3/5
f 213/3/5 206/3/5 212/3/5
f 214/1/5 200/1/5 199/1/5
f 214/3/5 193/3/5 213/3/5
f 214/1/5 199/1/5 193/1/5
f 215/1/5 200/1/5 214/1/5
f 218/1/5 208/1/5 207/1/5
f 218/1/5 207/1/5 201/1/5
f 219/3/5 210/3/5 209/3/5
f 219/3/5 209/3/5 208/3/5
f 219/1/5 208/1/5 218/1/5
f 220/3/5 210/3/5 219/3/5
f 221/2/5 211/2/5 210/2/5
f 221/3/5 210/3/5 220/3/5
f 222/3/5 213/3/5 212/3/5
f 222/2/5 211/2/5 221/2/5
f 222/3/5 212/3/5 211/3/5
f 223/3/5 213/3/5 222/3/5
f 224/1/5 216/1/5 215/1/5
f 224/3/5 213/3/5 223/3/5
f 224/1/5 215/1/5 214/1/5
f 224/1/5 214/1/5 213/1/5
f 225/3/5 221/3/5 220/3/5
f 225/1/5 219/1/5 218/1/5
f 225/1/5 220/1/5 219/1/5
f 225/3/5 223/3/5 222/3/5
f 225/3/5 222/3/5 221/3/5
f 225/1/5 218/1/5 217/1/5
f 226/1/5 224/1/5 223/1/5
f 226/3/5 223/3/5 225/3/5
f 228/1/5 225/1/5 217/1/5
f 228/1/5 226/1/5 225/1/5
f 229/1/5 216/1/5 224/1/5
f 229/1/5 224/1/5 226/1/5
f 229/1/5 226/1/5 228/1/5
f 231/1/5 228/1/5 227/1/5
f 231/1/5 230/1/5 229/1/5
f 231/1/5 229/1/5 228/1/5
f 232/1/5 230/1/5 231/1/5
f 233/1/6 234/1/6 236/1/6
f 236/1/6 234/1/6 237/1/6
f 235/1/6 236/1/6 239/1/6
f 237/1/6 238/1/6 239/1/6
f 236/1/6 237/1/6 239/1/6
f 239/1/6 238/1/6 240/1/6
f 235/1/6 239/1/6 242/1/6
f 239/3/6 240/3/6 243/3/6
f 243/3/6 240/3/6 244/3/6
f 240/1/6 238/1/6 245/1/6
f 244/3/6 240/3/6 245/3/6
f 245/1/6 238/1/6 246/1/6
f 241/1/6 242/1/6 247/1/6
f 242/1/6 239/1/6 247/1/6
f 239/3/6 243/3/6 248/3/6
f 247/1/6 239/1/6 248/1/6
f 243/2/6 244/2/6 249/2/6
f 245/3/6 246/3/6 249/3/6
f 244/3/6 245/3/6 249/3/6
f 249/3/6 246/3/6 250/3/6
f 246/1/6 238/1/6 251/1/6
f 241/1/6 247/1/6 254/1/6
f 248/3/6 243/3/6 255/3/6
f 247/3/6 248/3/6 255/3/6
f 243/2/6 249/2/6 256/2/6
f 255/3/6 243/3/6 256/3/6
f 249/2/6 250/2/6 256/2/6
f 250/3/6 246/3/6 257/3/6
f 251/1/6 252/1/6 257/1/6
f 246/1/6 251/1/6 257/1/6
f 257/1/6 252/1/6 258/1/6
f 253/1/6 254/1/6 259/1/6
f 254/1/6 247/1/6 259/1/6
f 247/3/6 255/3/6 260/3/6
f 259/1/6 247/1/6 260/1/6
f 255/2/6 256/2/6 261/2/6
f 260/3/6 255/3/6 261/3/6
f 256/2/6 250/2/6 262/2/6
f 261/2/6 256/2/6 262/2/6
f 257/3/6 258/3/6 262/3/6
f 250/3/6 257/3/6 262/3/6
f 258/1/6 252/1/6 263/1/6
f 260/3/6 261/3/6 265/3/6
f 259/3/6 260/3/6 265/3/6
f 261/3/6 262/3/6 265/3/6
f 262/3/6 258/3/6 266/3/6
f 265/3/6 262/3/6 266/3/6
f 253/1/6 259/1/6 268/1/6
f 266/3/6 258/3/6 269/3/6
f 265/2/6 266/2/6 269/2/6
f 269/3/6 258/3/6 270/3/6
f 263/1/6 264/1/6 271/1/6
f 270/3/6 258/3/6 271/3/6
f 258/1/6 263/1/6 271/1/6
f 271/1/6 264/1/6 272/1/6
f 269/2/6 270/2/6 273/2/6
f 270/3/6 271/3/6 273/3/6
f 271/3/6 272/3/6 273/3/6
f 273/3/6 272/3/6 274/3/6
f 272/1/6 264/1/6 275/1/6
f 267/1/6 268/1/6 278/1/6
f 259/3/6 265/3/6 279/3/6
f 265/2/6 269/2/6 279/2/6
f 269/2/6 273/2/6 279/2/6
f 273/2/6 274/2/6 279/2/6
f 279/2/6 274/2/6 280/2/6
f 280/2/6 274/2/6 281/2/6
f 274/3/6 272/3/6 282/3/6
f 281/2/6 274/2/6 282/2/6
f 277/1/6 278/1/6 283/1/6
f 278/1/6 268/1/6 283/1/6
f 268/1/6 259/1/6 283/1/6
f 279/3/6 280/3/6 284/3/6
f 283/1/6 259/1/6 284/1/6
f 259/3/6 279/3/6 284/3/6
f 280/2/6 281/2/6 285/2/6
f 284/3/6 280/3/6 285/3/6
f 281/3/6 282/3/6 286/3/6
f 285/2/6 281/2/6 286/2/6
f 282/3/6 272/3/6 287/3/6
f 286/3/6 282/3/6 287/3/6
f 275/1/6 276/1/6 288/1/6
f 287/3/6 272/3/6 288/3/6
f 272/1/6 275/1/6 288/1/6
f 288/1/6 276/1/6 289/1/6
f 277/1/6 283/1/6 290/1/6
f 285/3/6 286/3/6 291/3/6
f 290/1/6 283/1/6 291/1/6
f 283/3/6 284/3/6 291/3/6
f 284/3/6 285/3/6 291/3/6
f 286/2/6 287/2/6 292/2/6
f 291/3/6 286/3/6 292/3/6
f 288/3/6 289/3/6 293/3/6
f 292/2/6 287/2/6 293/2/6
f 287/3/6 288/3/6 293/3/6
f 293/3/6 289/3/6 294/3/6
f 289/1/6 276/1/6 295/1/6
f 277/1/6 290/1/6 298/1/6
f 291/2/6 292/2/6 299/2/6
f 290/3/6 291/3/6 299/3/6
f 292/2/6 293/2/6 299/2/6
f 293/2/6 294/2/6 299/2/6
f 299/2/6 294/2/6 300/2/6
f 300/2/6 294/2/6 301/2/6
f 294/3/6 289/3/6 302/3/6
f 301/2/6 294/2/6 302/2/6
f 297/1/6 298/1/6 303/1/6
f 298/1/6 290/1/6 303/1/6
f 290/3/6 299/3/6 303/3/6
f 299/3/6 300/3/6 303/3/6
f 303/3/6 300/3/6 304/3/6
f 300/2/6 301/2/6 305/2/6
f 304/3/6 300/3/6 305/3/6
f 305/2/6 301/2/6 306/2/6
f 306/2/6 301/2/6 307/2/6
f 301/3/6 302/3/6 308/3/6
f 307/2/6 301/2/6 308/2/6
f 302/3/6 289/3/6 309/3/6
f 308/3/6 302/3/6 309/3/6
f 295/1/6 296/1/6 310/1/6
f 309/3/6 289/3/6 310/3/6
f 289/1/6 295/1/6 310/1/6
f 310/1/6 296/1/6 311/1/6
f 303/1/6 304/1/6 314/1/6
f 297/1/6 303/1/6 314/1/6
f 305/3/6 306/3/6 315/3/6
f 304/3/6 305/3/6 315/3/6
f 314/1/6 304/1/6 315/1/6
f 315/3/6 306/3/6 316/3/6
f 306/2/6 307/2/6 317/2/6
f 316/3/6 306/3/6 317/3/6
f 308/3/6 309/3/6 318/3/6
f 317/2/6 307/2/6 318/2/6
f 307/3/6 308/3/6 318/3/6
f 318/3/6 309/3/6 319/3/6
f 311/1/6 312/1/6 320/1/6
f 319/3/6 309/3/6 320/3/6
f 310/1/6 311/1/6 320/1/6
f 309/1/6 310/1/6 320/1/6
f 316/3/6 317/3/6 321/3/6
f 314/1/6 315/1/6 321/1/6
f 315/1/6 316/1/6 321/1/6
f 318/3/6 319/3/6 321/3/6
f 317/3/6 318/3/6 321/3/6
f 313/1/6 314/1/6 321/1/6
f 319/1/6 320/1/6 322/1/6
f 321/3/6 319/3/6 322/3/6
f 313/1/6 321/1/6 324/1/6
f 321/1/6 322/1/6 324/1/6
f 320/1/6 312/1/6 325/1/6
f 322/1/6 320/1/6 325/1/6
f 324/1/6 322/1/6 325/1/6
f 323/1/6 324/1/6 327/1/6
f 325/1/6 326/1/6 327/1/6
f 324/1/6 325/1/6 327/1/6
f 327/1/6 326/1/6 328/1/6
